<?xml version="1.0" encoding="UTF-8" standalone="no"?>
<!-- Created with Inkscape (http://www.inkscape.org/) -->

<svg
   width="31.999998"
   height="31.999998"
   viewBox="0 0 8.4666661 8.4666661"
   version="1.1"
   id="svg161"
   xml:space="preserve"
   xmlns="http://www.w3.org/2000/svg"
   xmlns:svg="http://www.w3.org/2000/svg"><defs
     id="defs158" /><g
     id="layer1"><g
       style="display:inline;opacity:1;fill:none;fill-rule:nonzero;stroke:none;stroke-width:0;stroke-linecap:butt;stroke-linejoin:miter;stroke-miterlimit:10;stroke-dasharray:none"
       transform="scale(0.09407407)"
       id="g183">
	<path
   d="m 50.923046,87.89299 c -0.455619,0 -0.897893,-0.162994 -1.247708,-0.464198 -0.418446,-0.362207 -0.658646,-0.888361 -0.658646,-1.442158 V 57.768769 c 0,-1.052308 0.854046,-1.906354 1.906354,-1.906354 h 8.208765 l 0.991303,-7.726456 h -9.200068 c -1.052308,0 -1.906354,-0.854047 -1.906354,-1.906356 v -7.367109 c 0,-3.230318 0.787324,-7.524381 7.594918,-7.524381 l 4.172057,-9.54e-4 v -6.691307 c -1.653762,-0.133444 -4.179683,-0.273561 -6.950571,-0.273561 -8.050536,0 -12.856457,4.98893 -12.856457,13.346391 v 8.509968 c 0,1.052308 -0.854047,1.906356 -1.906354,1.906356 h -8.005737 v 7.726456 h 8.004783 c 1.052309,0 1.906355,0.854046 1.906355,1.906354 v 28.216912 c 0,0.553796 -0.240201,1.079951 -0.659597,1.442157 -0.418446,0.362208 -0.973196,0.523295 -1.522226,0.445134 C 17.879244,84.823759 2.1070183,66.48653 2.1070183,45.217328 c 0,-23.771292 19.2417917,-43.1103097 42.8929837,-43.1103097 23.65119,0 42.892984,19.3390177 42.892984,43.1103097 0,21.272061 -15.77604,39.611195 -36.695425,42.656598 -0.0915,0.01239 -0.18301,0.01906 -0.274515,0.01906 z m 1.906355,-28.217866 v 24.042949 c 17.964534,-3.684032 31.250875,-19.855642 31.250875,-38.500745 0,-21.668583 -17.531792,-39.2976 -39.080274,-39.2976 -21.548482,0 -39.0802742,17.629017 -39.0802742,39.2976 0,18.643198 13.2834802,34.8129 31.2432492,38.500745 V 59.675124 h -8.004784 c -1.052308,0 -1.906355,-0.854047 -1.906355,-1.906355 V 46.229603 c 0,-1.052308 0.854047,-1.906356 1.906355,-1.906356 h 8.004784 v -6.603612 c 0,-10.584083 6.387242,-17.1591 16.669166,-17.1591 4.558095,0 8.19542,0.348863 9.109518,0.471823 0.947458,0.126772 1.653762,0.934113 1.653762,1.889198 v 10.321003 c 0,1.052308 -0.853093,1.906355 -1.905401,1.906355 l -6.078412,0.002 c -3.425723,0 -3.783163,1.131421 -3.783163,3.711672 v 5.460732 h 9.460287 c 0.548077,0 1.069464,0.235435 1.431672,0.647207 0.361254,0.411774 0.529014,0.957944 0.458478,1.502208 l -1.480285,11.539165 c -0.122005,0.951272 -0.932207,1.663296 -1.89015,1.663296 z"
   style="opacity:1;fill:#000000;fill-rule:nonzero;stroke:#000000;stroke-width:4.21404;stroke-linecap:butt;stroke-linejoin:miter;stroke-miterlimit:10;stroke-dasharray:none;stroke-opacity:1"
   stroke-linecap="round"
   id="path194" />
</g></g></svg>
